Coordinates
version=1
nRows=49
nColumns=12
inDegrees=yes

Units are S.I. units (second, meters, Newtons, ...)
Angles are in degrees

endheader
time	SC_y	SC_z	SC_x	AC_y	AC_z	AC_x	GH_y	GH_z	GH_yy	EL_x	PS_y
       0.0              -57.63          3.317          12.06          62.53         -17.93         -2.926         -13.92          57.05         -72.32          90.46          28.57
   0.04707              -57.62          3.317          12.06          62.53         -17.93         -2.928         -13.91          57.05         -72.33          90.45          28.59
   0.09415              -57.62          3.318          12.07          62.53         -17.93         -2.929         -13.89          57.05         -72.34          90.44           28.6
    0.1412              -57.62          3.319          12.07          62.53         -17.93          -2.93         -13.87          57.06         -72.35          90.44          28.62
    0.1883              -57.61           3.32          12.07          62.53         -17.93         -2.932         -13.85          57.06         -72.36          90.43          28.63
    0.2354              -57.61          3.321          12.08          62.53         -17.93         -2.934         -13.82          57.07         -72.38          90.42          28.65
    0.2824               -57.6          3.322          12.09          62.53         -17.92         -2.935          -13.8          57.07         -72.39          90.41          28.67
    0.3295              -57.59          3.324          12.09          62.53         -17.92         -2.937         -13.77          57.07          -72.4           90.4          28.69
    0.3766              -57.59          3.325           12.1          62.53         -17.92         -2.939         -13.75          57.08         -72.42          90.39          28.72
    0.4237              -57.58          3.326           12.1          62.53         -17.92         -2.942         -13.72          57.08         -72.43          90.38          28.74
    0.4707              -57.57          3.328          12.11          62.53         -17.91         -2.944         -13.69          57.09         -72.45          90.37          28.77
    0.5178              -57.57          3.329          12.12          62.53         -17.91         -2.947         -13.65          57.09         -72.47          90.36          28.79
    0.5649              -57.56          3.331          12.13          62.53         -17.91         -2.949         -13.62           57.1         -72.49          90.35          28.82
     0.612              -57.55          3.333          12.14          62.53         -17.91         -2.952         -13.58          57.11         -72.51          90.33          28.86
     0.659              -57.54          3.335          12.15          62.53          -17.9         -2.956         -13.53          57.12         -72.54          90.32          28.89
    0.7061              -57.53          3.337          12.16          62.53          -17.9         -2.959         -13.49          57.12         -72.56           90.3          28.93
    0.7532              -57.52           3.34          12.17          62.53         -17.89         -2.963         -13.44          57.13         -72.59          90.28          28.97
    0.8002              -57.51          3.342          12.18          62.53         -17.89         -2.967         -13.38          57.14         -72.62          90.26          29.02
    0.8473              -57.49          3.345          12.19          62.54         -17.88         -2.971         -13.32          57.15         -72.65          90.24          29.07
    0.8944              -57.48          3.348          12.21          62.54         -17.88         -2.976         -13.26          57.16         -72.69          90.22          29.12
    0.9415              -57.46          3.352          12.23          62.54         -17.87         -2.982         -13.18          57.18         -72.73          90.19          29.18
    0.9885              -57.44          3.356          12.24          62.54         -17.87         -2.988          -13.1          57.19         -72.77          90.16          29.25
     1.036              -57.42           3.36          12.26          62.54         -17.86         -2.994         -13.02           57.2         -72.82          90.13          29.32
     1.083               -57.4          3.364          12.29          62.54         -17.85         -3.002         -12.92          57.22         -72.88           90.1           29.4
      1.13              -57.38           3.37          12.31          62.54         -17.84          -3.01         -12.81          57.24         -72.94          90.06          29.49
     1.177              -57.35          3.375          12.34          62.54         -17.83         -3.019         -12.69          57.26          -73.0          90.01          29.59
     1.224              -57.32          3.382          12.37          62.55         -17.82         -3.029         -12.56          57.28         -73.08          89.97           29.7
     1.271              -57.28          3.389          12.41          62.55         -17.81          -3.04         -12.41          57.31         -73.16          89.91          29.82
     1.318              -57.24          3.397          12.44          62.55         -17.79         -3.053         -12.23          57.34         -73.26          89.85          29.96
     1.365               -57.2          3.406          12.49          62.55         -17.78         -3.068         -12.04          57.37         -73.37          89.78          30.12
     1.412              -57.15          3.417          12.54          62.56         -17.76         -3.085         -11.82          57.41         -73.49           89.7          30.31
     1.459              -57.09          3.429           12.6          62.56         -17.74         -3.104         -11.56          57.46         -73.63          89.61          30.52
     1.506              -57.02          3.443          12.67          62.56         -17.71         -3.126         -11.27          57.51         -73.79           89.5          30.76
     1.553              -56.95           3.46          12.74          62.57         -17.68         -3.152         -10.93          57.57         -73.98          89.38          31.04
       1.6              -56.86          3.479          12.84          62.57         -17.65         -3.182         -10.53          57.64          -74.2          89.24          31.37
     1.648              -56.75          3.501          12.94          62.58         -17.61         -3.217         -10.06          57.72         -74.47          89.07          31.76
     1.695              -56.62          3.528          13.07          62.59         -17.57          -3.26         -9.495          57.81         -74.78          88.87          32.23
     1.742              -56.47           3.56          13.23           62.6         -17.51          -3.31         -8.823          57.93         -75.15          88.62          32.78
     1.789              -56.28          3.599          13.41          62.61         -17.44         -3.371          -8.01          58.07          -75.6          88.33          33.45
     1.836              -56.06          3.646          13.64          62.62         -17.36         -3.446         -7.018          58.24         -76.15          87.98          34.27
     1.883              -55.78          3.705          13.92          62.64         -17.26         -3.538         -5.793          58.45         -76.83          87.54          35.28
      1.93              -55.43          3.778          14.27          62.66         -17.13         -3.654         -4.265          58.72         -77.68          86.99          36.54
     1.977              -54.99           3.87          14.72          62.69         -16.97         -3.798          -2.34          59.05         -78.75           86.3          38.13
     2.024              -54.44          3.987          15.28          62.72         -16.77         -3.983         0.1067          59.47         -80.11          85.42          40.15
     2.071              -53.72          4.136           16.0          62.76          -16.5         -4.219          3.238          60.02         -81.85          84.29          42.74
     2.118              -52.81          4.328          16.92          62.82         -16.17         -4.521          7.257          60.71         -84.08          82.85          46.05
     2.165              -51.64          4.574           18.1          62.89         -15.74         -4.908          12.39           61.6         -86.92           81.0          50.29
     2.212              -50.18          4.882          19.58          62.98          -15.2         -5.394          18.85          62.71         -90.51          78.69          55.62
      2.26              -48.39          5.258          21.38          63.08         -14.55         -5.986          26.71          64.07         -94.87          75.86          62.11
